<svg width="95" height="98" viewBox="0 0 95 98" fill="none" xmlns="http://www.w3.org/2000/svg">
<path d="M78 22L71 28" stroke="white" stroke-width="2"/>
<path d="M78 22H79V21H78V22ZM12 40.75C12 40.1977 11.5523 39.75 11 39.75C10.4477 39.75 10 40.1977 10 40.75H12ZM53.875 21C53.3227 21 52.875 21.4477 52.875 22C52.875 22.5523 53.3227 23 53.875 23V21ZM48.6875 23C49.2398 23 49.6875 22.5523 49.6875 22C49.6875 21.4477 49.2398 21 48.6875 21V23ZM77 22V39.5H79V22H77ZM12 51.5V40.75H10V51.5H12ZM27.75 23H44.5V21H27.75V23ZM16.375 23H27.75V21H16.375V23ZM36.75 80H19.375V82H36.75V80ZM12 77.25V51.5H10V77.25H12ZM61.25 23H78V21H61.25V23ZM53.875 23H61.25V21H53.875V23ZM44.5 23H48.6875V21H44.5V23Z" fill="white"/>
<path d="M69.0714 38H66.5C59.0442 38 53 44.0442 53 51.5V62.09C53 63.8476 51.9298 65.4281 50.2979 66.0809C49.9596 66.2162 49.5985 66.2857 49.2341 66.2857H48.3765C46.8914 66.2857 45.5493 65.4007 44.9643 64.0357L44.879 63.8369C44.3458 62.5925 43.1222 61.7857 41.7685 61.7857C38.0303 61.7857 35 64.8161 35 68.5542V72.351C35 85.6881 45.8119 96.5 59.1491 96.5H62H62.6429C79.6848 96.5 93.5 82.6848 93.5 65.6429V62.4286C93.5 48.9371 82.563 38 69.0714 38Z" stroke="white" stroke-width="2" stroke-linejoin="round"/>
<path d="M71 38.5V28H57.75H50.125M35.25 75H24.625H20.3125M18 59.25V51.5V28H31.25H37.875H44.5" stroke="white" stroke-width="2"/>
<circle cx="84" cy="58" r="3" fill="white"/>
<circle opacity="0.7" cx="84" cy="69" r="3" fill="white"/>
<circle opacity="0.5" cx="80" cy="78" r="3" fill="white"/>
<circle opacity="0.3" cx="72" cy="85" r="3" fill="white"/>
<circle opacity="0.2" cx="62" cy="88" r="3" fill="white"/>
<path d="M10.5005 13.5C9.30045 16.7 10 19.5 13.5005 21C18.7407 23.2455 23.5002 18 22.5002 12.5C21.7002 8.1 18.5002 6.33333 17.0002 6C16.5002 9.5 12.0005 9.5 10.5005 13.5Z" stroke="white" stroke-width="2"/>
<path d="M14.5 30L12.671 36.0966C11.8929 38.6904 10.8217 41.1871 9.47811 43.5383C8.16347 45.8389 6.59637 47.9858 4.80587 49.939L4.1988 50.6013C3.34115 51.5369 1.78082 51.0274 1.64066 49.7659L1.55251 48.9726C1.18687 45.6819 1.38758 42.3528 2.14594 39.1298C2.71298 36.7198 3.58634 34.3925 4.74471 32.2044L7.5 27L11.5 20L13.5 21L14.5 21.5H16L14.5 30Z" stroke="white" stroke-width="2"/>
<path d="M15 27.5L9 24.5" stroke="white" stroke-width="2" stroke-linejoin="round"/>
<path d="M41.42 32.1437L46.5 25.5L51.5 18.5L57.5002 10L57.5902 9.89003C58.3951 8.90627 59.9563 9.81366 59.5 11V11L54.5001 20L50 28L45.3784 34.7573M41.42 32.1437L45.3784 34.7573M41.42 32.1437L32.5002 34.5L45.3784 43.5L45.3784 34.7573" stroke="white" stroke-width="2"/>
<path d="M19.1338 84.5001C20.3338 81.3001 19.6343 78.5001 16.1338 77.0001C10.8936 74.7545 6.13404 80.0001 7.13404 85.5001C7.93404 89.9001 11.134 91.6667 12.634 92.0001C13.134 88.5001 17.6338 88.5001 19.1338 84.5001Z" stroke="white" stroke-width="2"/>
<path d="M15.1343 68.0001L16.9633 61.9034C17.7414 59.3096 18.8126 56.813 20.1562 54.4618C21.4708 52.1611 23.0379 50.0143 24.8284 48.061L25.4355 47.3988C26.2931 46.4631 27.8535 46.9727 27.9936 48.2342L28.0818 49.0274C28.4474 52.3182 28.2467 55.6473 27.4883 58.8703C26.9213 61.2802 26.0479 63.6076 24.8896 65.7956L22.1343 71.0001L18.1343 78.0001L16.1343 77.0001L15.1343 76.5001L13.6343 76.5001L15.1343 68.0001Z" stroke="white" stroke-width="2"/>
<path d="M14.6343 70.5001L20.6343 73.5001" stroke="white" stroke-width="2" stroke-linejoin="round"/>
</svg>
