<svg width="88" height="80" viewBox="0 0 88 80" fill="none" xmlns="http://www.w3.org/2000/svg">
<path d="M58.2621 70.9015L70.4213 74.1596L86.2645 15.0323L37.6274 2L35.6471 9.39092L34.6569 13.0864" stroke="white" stroke-width="2"/>
<rect x="1" y="17" width="51" height="62" stroke="white" stroke-width="2"/>
<path d="M44 69L9 69" stroke="white" stroke-width="2"/>
<path d="M43 66V63C43 62.4477 42.5523 62 42 62H11C10.4477 62 10 62.4477 10 63V66" stroke="white" stroke-width="2"/>
<path d="M33 9H9C4.58172 9 1 12.5817 1 17V17" stroke="white" stroke-width="2"/>
<rect x="20.1787" y="33" width="12" height="21" stroke="white" stroke-width="2"/>
<path d="M32.3554 32.5685L26.1781 23.6862L20 32.5698" stroke="white" stroke-width="2"/>
<rect x="26.1787" y="33" width="6" height="21" stroke="white" stroke-width="2"/>
<path d="M59.5 29.4999C55.9 31.4999 53.3333 28.3333 52.5 26.4999L52 53.5L54 52.5C60 51 58 57 65 54.5C72 52 69 45.5 63.5 43C58 40.5 62 34.5 66.5 34.5C71 34.5 78 28.4999 71.5 22.9999C65 17.4999 64 26.9999 59.5 29.4999Z" stroke="white" stroke-width="2" stroke-linejoin="round"/>
</svg>
