<svg width="85" height="87" viewBox="0 0 85 87" fill="none" xmlns="http://www.w3.org/2000/svg">
<path d="M39.3507 85.5661L67.9321 53.4066C77.3585 42.8002 76.415 26.5456 65.8247 17.101V17.101C55.2345 7.65636 39.0078 8.59824 29.5815 19.2047L1.00005 51.3642" stroke="#F1F1F1" stroke-width="2" stroke-miterlimit="10" stroke-linecap="round"/>
<path d="M25.2316 82.9291L43.8128 62.0217M5.24833 65.1076L23.8296 44.2002" stroke="#F1F1F1" stroke-width="2" stroke-miterlimit="10" stroke-linecap="round"/>
<path d="M33.8858 82.8683L39.0165 77.0953L41.5818 74.2088M4.30727 56.4896L9.43797 50.7165L12.0033 47.83M54.4086 59.7763L49.2779 65.5493L44.1472 71.3223M24.8301 33.3975L19.6994 39.1705L14.5687 44.9435" stroke="#F1F1F1" stroke-width="2" stroke-miterlimit="10" stroke-linecap="round"/>
<path d="M16.317 78.8807L20.7269 73.9187M2.95107 81.5153L15.3793 67.5321L18.4864 64.0363M33.9567 59.0327L29.5468 63.9947L25.1369 68.9567M27.8076 53.5489L21.5935 60.5405" stroke="#F1F1F1" stroke-width="2" stroke-miterlimit="10" stroke-linecap="round"/>
<ellipse rx="19.6152" ry="19.6191" transform="matrix(0.746322 0.665586 -0.664301 0.747465 49.1204 35.8964)" stroke="#F1F1F1" stroke-width="2" stroke-miterlimit="10" stroke-linecap="round"/>
<path d="M49.3289 23.1661V47.5013M55.4022 25.3784H47.1204C45.8025 25.3784 44.5386 25.9028 43.6068 26.8363C42.6749 27.7698 42.1514 29.0359 42.1514 30.3561C42.1514 31.6762 42.6749 32.9423 43.6068 33.8758C44.5386 34.8093 45.8025 35.3337 47.1204 35.3337H51.5373C52.1899 35.3337 52.836 35.4625 53.4389 35.7126C54.0418 35.9628 54.5896 36.3294 55.051 36.7916C55.5124 37.2539 55.8784 37.8026 56.1281 38.4065C56.3779 39.0104 56.5064 39.6577 56.5064 40.3114C56.5064 40.9651 56.3779 41.6123 56.1281 42.2163C55.8784 42.8202 55.5124 43.3689 55.051 43.8311C54.5896 44.2933 54.0418 44.66 53.4389 44.9101C52.836 45.1603 52.1899 45.289 51.5373 45.289H43.2556" stroke="#F1F1F1" stroke-width="2" stroke-linecap="round" stroke-linejoin="round"/>
</svg>
