<svg width="138" height="155" viewBox="0 0 138 155" fill="none" xmlns="http://www.w3.org/2000/svg">
<path d="M98.9701 102.35L91.7701 95.15C95.0401 90.59 96.9601 85.01 96.9601 78.98C96.9601 63.62 84.4601 51.12 69.1001 51.12C63.0701 51.12 57.4901 53.05 52.9301 56.31L44.8301 48.21L38.3301 54.71L46.4301 62.81C43.1601 67.37 41.2401 72.96 41.2401 78.98C41.2401 94.34 53.7401 106.84 69.1001 106.84C75.1301 106.84 80.7101 104.91 85.2701 101.65L92.4701 108.85L98.9701 102.35ZM69.0901 60.3C79.3901 60.3 87.7701 68.68 87.7701 78.98C87.7701 82.46 86.7901 85.72 85.1201 88.51L59.5601 62.95C62.3501 61.28 65.6101 60.3 69.0901 60.3ZM69.0901 97.65C58.7901 97.65 50.4101 89.27 50.4101 78.97C50.4101 75.48 51.3901 72.23 53.0601 69.44L78.6201 95C75.8301 96.67 72.5801 97.65 69.0901 97.65Z" stroke="#3D4043" stroke-width="2" stroke-miterlimit="10" stroke-linecap="round" stroke-linejoin="round"/>
<path d="M68.6399 14.44C72.3513 14.44 75.3599 11.4314 75.3599 7.72C75.3599 4.00865 72.3513 1 68.6399 1C64.9286 1 61.9199 4.00865 61.9199 7.72C61.9199 11.4314 64.9286 14.44 68.6399 14.44Z" stroke="#3D4043" stroke-width="2" stroke-miterlimit="10" stroke-linecap="round" stroke-linejoin="round"/>
<path d="M68.6402 17.34C70.8902 17.34 72.2002 16.85 72.9602 16.34C73.7902 15.78 74.8902 15.88 75.6302 16.55C77.7402 18.48 81.0802 22.63 81.0802 29.52H68.6402H56.2002C56.2002 22.62 59.5402 18.48 61.6502 16.55C62.3902 15.88 63.4902 15.78 64.3202 16.34C65.0802 16.85 66.4002 17.34 68.6402 17.34Z" stroke="#3D4043" stroke-width="2" stroke-miterlimit="10" stroke-linecap="round" stroke-linejoin="round"/>
<path d="M68.6399 138.52C72.3513 138.52 75.3599 135.511 75.3599 131.8C75.3599 128.089 72.3513 125.08 68.6399 125.08C64.9286 125.08 61.9199 128.089 61.9199 131.8C61.9199 135.511 64.9286 138.52 68.6399 138.52Z" stroke="#3D4043" stroke-width="2" stroke-miterlimit="10" stroke-linecap="round" stroke-linejoin="round"/>
<path d="M68.6402 141.42C70.8902 141.42 72.2002 140.93 72.9602 140.42C73.7902 139.86 74.8902 139.96 75.6302 140.63C77.7402 142.56 81.0802 146.71 81.0802 153.6H68.6402H56.2002C56.2002 146.7 59.5402 142.56 61.6502 140.63C62.3902 139.96 63.4902 139.86 64.3202 140.42C65.0802 140.93 66.4002 141.42 68.6402 141.42Z" stroke="#3D4043" stroke-width="2" stroke-miterlimit="10" stroke-linecap="round" stroke-linejoin="round"/>
<path d="M13.4402 41.53C17.1515 41.53 20.1602 38.5214 20.1602 34.81C20.1602 31.0986 17.1515 28.09 13.4402 28.09C9.72883 28.09 6.72021 31.0986 6.72021 34.81C6.72021 38.5214 9.72883 41.53 13.4402 41.53Z" stroke="#3D4043" stroke-width="2" stroke-miterlimit="10" stroke-linecap="round" stroke-linejoin="round"/>
<path d="M13.44 44.42C15.69 44.42 17 43.93 17.76 43.42C18.59 42.86 19.69 42.96 20.43 43.63C22.54 45.56 25.88 49.71 25.88 56.6H13.44H1C1 49.7 4.33998 45.56 6.44998 43.63C7.18998 42.96 8.29 42.86 9.12 43.42C9.89 43.93 11.2 44.42 13.44 44.42Z" stroke="#3D4043" stroke-width="2" stroke-miterlimit="10" stroke-linecap="round" stroke-linejoin="round"/>
<path d="M123.65 41.53C127.362 41.53 130.37 38.5214 130.37 34.81C130.37 31.0986 127.362 28.09 123.65 28.09C119.939 28.09 116.93 31.0986 116.93 34.81C116.93 38.5214 119.939 41.53 123.65 41.53Z" stroke="#3D4043" stroke-width="2" stroke-miterlimit="10" stroke-linecap="round" stroke-linejoin="round"/>
<path d="M123.65 44.42C125.9 44.42 127.21 43.93 127.97 43.42C128.8 42.86 129.9 42.96 130.64 43.63C132.75 45.56 136.09 49.71 136.09 56.6H123.65H111.21C111.21 49.7 114.55 45.56 116.66 43.63C117.4 42.96 118.5 42.86 119.33 43.42C120.09 43.93 121.4 44.42 123.65 44.42Z" stroke="#3D4043" stroke-width="2" stroke-miterlimit="10" stroke-linecap="round" stroke-linejoin="round"/>
<path d="M13.4402 100.8C17.1515 100.8 20.1602 97.7913 20.1602 94.08C20.1602 90.3686 17.1515 87.36 13.4402 87.36C9.72883 87.36 6.72021 90.3686 6.72021 94.08C6.72021 97.7913 9.72883 100.8 13.4402 100.8Z" stroke="#3D4043" stroke-width="2" stroke-miterlimit="10" stroke-linecap="round" stroke-linejoin="round"/>
<path d="M13.44 103.7C15.69 103.7 17 103.21 17.76 102.7C18.59 102.14 19.69 102.24 20.43 102.91C22.54 104.84 25.88 108.99 25.88 115.88H13.44H1C1 108.98 4.33998 104.84 6.44998 102.91C7.18998 102.24 8.29 102.14 9.12 102.7C9.89 103.21 11.2 103.7 13.44 103.7Z" stroke="#3D4043" stroke-width="2" stroke-miterlimit="10" stroke-linecap="round" stroke-linejoin="round"/>
<path d="M123.65 100.8C127.362 100.8 130.37 97.7913 130.37 94.08C130.37 90.3686 127.362 87.36 123.65 87.36C119.939 87.36 116.93 90.3686 116.93 94.08C116.93 97.7913 119.939 100.8 123.65 100.8Z" stroke="#3D4043" stroke-width="2" stroke-miterlimit="10" stroke-linecap="round" stroke-linejoin="round"/>
<path d="M123.65 103.7C125.9 103.7 127.21 103.21 127.97 102.7C128.8 102.14 129.9 102.24 130.64 102.91C132.75 104.84 136.09 108.99 136.09 115.88H123.65H111.21C111.21 108.98 114.55 104.84 116.66 102.91C117.4 102.24 118.5 102.14 119.33 102.7C120.09 103.21 121.4 103.7 123.65 103.7Z" stroke="#3D4043" stroke-width="2" stroke-miterlimit="10" stroke-linecap="round" stroke-linejoin="round"/>
<path d="M53.8302 18.58C41.9902 21.57 31.5502 28.06 23.6602 36.89" stroke="#3D4043" stroke-width="2" stroke-miterlimit="10" stroke-linecap="round" stroke-linejoin="round"/>
<path d="M115.01 38.5C106.87 28.72 95.7002 21.55 82.9302 18.45" stroke="#3D4043" stroke-width="2" stroke-miterlimit="10" stroke-linecap="round" stroke-linejoin="round"/>
<path d="M128.4 85.03C128.75 82.41 128.93 79.75 128.93 77.03C128.93 70.99 128.04 65.16 126.39 59.66" stroke="#3D4043" stroke-width="2" stroke-miterlimit="10" stroke-linecap="round" stroke-linejoin="round"/>
<path d="M80.96 136.06C92.89 133.58 103.53 127.58 111.74 119.19" stroke="#3D4043" stroke-width="2" stroke-miterlimit="10" stroke-linecap="round" stroke-linejoin="round"/>
<path d="M24.9399 118.55C33.1799 127.22 43.97 133.44 56.11 136.01" stroke="#3D4043" stroke-width="2" stroke-miterlimit="10" stroke-linecap="round" stroke-linejoin="round"/>
<path d="M10.5899 60.73C9.13987 65.91 8.35986 71.38 8.35986 77.03C8.35986 79.74 8.53986 82.41 8.88986 85.03" stroke="#3D4043" stroke-width="2" stroke-miterlimit="10" stroke-linecap="round" stroke-linejoin="round"/>
</svg>
