<svg width="149" height="144" viewBox="0 0 149 144" fill="none" xmlns="http://www.w3.org/2000/svg">
<path d="M28.4826 40.6615C27.991 40.9133 27.7967 41.5159 28.0485 42.0075C28.3002 42.499 28.9028 42.6934 29.3944 42.4416L28.4826 40.6615ZM120.922 42.2103C121.42 42.4473 122.017 42.235 122.254 41.7362C122.491 41.2373 122.279 40.6408 121.78 40.4038L120.922 42.2103ZM105.805 33.9215L106.234 33.0182L105.805 33.9215ZM43.4724 34.1066L43.0165 33.2166L43.4724 34.1066ZM29.3944 42.4416L43.9283 34.9967L43.0165 33.2166L28.4826 40.6615L29.3944 42.4416ZM49.8552 33.567H99.797V31.567H49.8552V33.567ZM105.375 34.8247L120.922 42.2103L121.78 40.4038L106.234 33.0182L105.375 34.8247ZM99.797 33.567C101.727 33.567 103.632 33.9967 105.375 34.8247L106.234 33.0182C104.222 32.0627 102.024 31.567 99.797 31.567V33.567ZM43.9283 34.9967C45.7627 34.057 47.7941 33.567 49.8552 33.567V31.567C47.4771 31.567 45.1331 32.1324 43.0165 33.2166L43.9283 34.9967Z" fill="#3D4043"/>
<path d="M7.01754 63.799H5C2.79086 63.799 1 65.5898 1 67.7989V85.0412C1 87.2504 2.79086 89.0412 5 89.0412H7.01754" stroke="#3D4043" stroke-width="2"/>
<path d="M141.982 89.0413H144C146.209 89.0413 148 87.2504 148 85.0413V67.799C148 65.5899 146.209 63.799 144 63.799H141.982" stroke="#3D4043" stroke-width="2"/>
<path d="M115 48H34.732H33C21.9543 48 13 56.9543 13 68V87C13 98.0457 21.9543 107 33 107H58.7251L64.1429 101.058H83.4354L89.7619 107L114.413 106.557C126.953 106.332 137 96.1022 137 83.5607V70C137 57.8497 127.15 48 115 48Z" stroke="#3D4043" stroke-width="2" stroke-linejoin="round"/>
<path d="M118.982 41.5516H30.6712H29.0176C16.8673 41.5516 7.01758 51.4013 7.01758 63.5516V88.4279C7.01758 102.235 18.2105 113.428 32.0176 113.428H60.3158L66.3334 106.189H81.807L86.9649 113.428L117.452 112.855C131.074 112.599 141.982 101.483 141.982 87.8592V64.5516C141.982 51.849 131.685 41.5516 118.982 41.5516Z" stroke="#3D4043" stroke-width="2" stroke-linejoin="round"/>
</svg>
