<svg width="127" height="148" viewBox="0 0 127 148" fill="none" xmlns="http://www.w3.org/2000/svg">
<path d="M28.5612 88.6056C28.2512 87.9556 28.0112 87.1756 28.0112 85.9956C28.0112 82.5156 30.0812 82.5157 30.0812 79.0257C30.0812 75.5457 28.0112 75.5456 28.0112 72.0556C28.0112 68.5756 30.0812 68.5756 30.0812 65.0856C30.0812 61.6056 28.0112 61.6056 28.0112 58.1256C28.0112 54.6456 30.0812 54.6456 30.0812 51.1556C30.0812 47.6756 28.0112 47.6756 28.0112 44.1856C28.0112 40.7056 30.0812 40.7056 30.0812 37.2156C30.0812 33.7356 28.0112 33.7356 28.0112 30.2456C28.0112 26.7656 30.0812 26.7656 30.0812 23.2856C30.0812 19.8056 28.0112 19.8056 28.0112 16.3156C28.0112 12.8256 30.0812 12.8256 30.0812 9.34564C30.0812 5.86564 25.9912 4.35564 28.2512 1.69564C30.1712 -0.564357 32.0012 3.40564 34.9712 3.40564C37.9412 3.40564 37.9412 1.33564 40.9012 1.33564C43.8712 1.33564 43.8712 3.40564 46.8312 3.40564C49.8012 3.40564 49.8012 1.33564 52.7612 1.33564C55.7312 1.33564 55.7312 3.40564 58.6912 3.40564C61.6612 3.40564 61.6612 1.33564 64.6212 1.33564C67.5812 1.33564 67.5813 3.40564 70.5513 3.40564C73.5113 3.40564 73.5112 1.33564 76.4812 1.33564C79.4512 1.33564 79.4512 3.40564 82.4112 3.40564C85.3812 3.40564 85.3812 1.33564 88.3412 1.33564C91.3012 1.33564 91.3112 3.40564 94.2712 3.40564C97.2412 3.40564 97.2412 1.33564 100.201 1.33564C103.171 1.33564 103.171 3.40564 106.131 3.40564C109.101 3.40564 109.101 1.33564 112.071 1.33564C115.041 1.33564 115.041 3.40564 118.011 3.40564C120.981 3.40564 122.811 -0.564357 124.741 1.69564C127.001 4.34564 122.911 5.84564 122.911 9.33564C122.911 12.8156 124.981 12.8156 124.981 16.3056C124.981 19.7856 122.911 19.7856 122.911 23.2756C122.911 26.7556 124.981 26.7556 124.981 30.2456C124.981 33.7256 122.911 33.7256 122.911 37.2156C122.911 40.6956 124.981 40.6956 124.981 44.1856C124.981 47.6656 122.911 47.6656 122.911 51.1556C122.911 54.6356 124.981 54.6356 124.981 58.1156C124.981 61.5956 122.911 61.5956 122.911 65.0856C122.911 68.5756 124.981 68.5656 124.981 72.0556C124.981 75.5356 122.911 75.5357 122.911 79.0257C122.911 82.5057 124.981 82.5056 124.981 85.9956C124.981 89.4756 122.911 89.4756 122.911 92.9556C122.911 96.4356 124.981 96.4356 124.981 99.9256C124.981 103.416 122.081 103.776 122.941 107.156C123.951 111.106 126.991 111.886 124.731 114.546C122.811 116.806 120.981 112.836 118.011 112.836C115.041 112.836 115.041 114.906 112.081 114.906C109.111 114.906 109.111 112.836 106.151 112.836C103.181 112.836 103.181 114.906 100.221 114.906C97.2612 114.906 97.2512 112.836 94.2912 112.836C91.3212 112.836 91.3212 114.906 88.3612 114.906C85.4012 114.906 85.4013 112.836 82.4313 112.836C81.5813 112.836 80.9812 113.006 80.4812 113.246" stroke="#3D4043" stroke-width="2" stroke-miterlimit="10"/>
<path d="M38.4414 82.1556V13.4356H114.561V102.826H76.5014" stroke="#3D4043" stroke-width="2" stroke-miterlimit="10"/>
<path d="M66.7212 76.4957C80.4712 73.8657 97.6612 71.9557 114.561 73.7457" stroke="#3D4043" stroke-width="2" stroke-miterlimit="10"/>
<path d="M52.5114 54.7156C48.0014 52.8856 43.2514 51.4056 38.4414 50.5856" stroke="#3D4043" stroke-width="2" stroke-miterlimit="10" stroke-linecap="round" stroke-linejoin="round"/>
<path d="M83.5912 73.9856C83.5912 73.9856 82.3312 72.8656 80.1012 71.1156C76.4412 68.2356 70.1512 63.6556 62.4912 59.4756" stroke="#3D4043" stroke-width="2" stroke-miterlimit="10" stroke-linecap="round" stroke-linejoin="round"/>
<path d="M70.1611 64.0456V49.4456H76.5011V58.1256H91.4711V73.0456" stroke="#3D4043" stroke-width="2" stroke-miterlimit="10"/>
<path d="M100.231 38.1456C104.285 38.1456 107.571 34.8594 107.571 30.8056C107.571 26.7519 104.285 23.4656 100.231 23.4656C96.1773 23.4656 92.8911 26.7519 92.8911 30.8056C92.8911 34.8594 96.1773 38.1456 100.231 38.1456Z" stroke="#3D4043" stroke-width="2" stroke-miterlimit="10" stroke-linejoin="round"/>
<path d="M38.4414 34.7556H67.4614" stroke="#3D4043" stroke-width="2" stroke-miterlimit="10" stroke-linejoin="round"/>
<path d="M38.4414 26.8456H51.0714" stroke="#3D4043" stroke-width="2" stroke-miterlimit="10" stroke-linejoin="round"/>
<path d="M114.561 49.4456H97.6914" stroke="#3D4043" stroke-width="2" stroke-miterlimit="10" stroke-linejoin="round"/>
<path d="M114.561 82.5056C107.351 82.0356 100.181 82.0756 93.3011 82.4656C92.0411 82.5356 90.7811 82.6156 89.5411 82.7156C87.8311 82.8456 86.1311 82.9956 84.4711 83.1556C82.9811 83.3056 81.5212 83.4656 80.0712 83.6356L79.1611 83.7656" stroke="#3D4043" stroke-width="2" stroke-miterlimit="10" stroke-linejoin="round"/>
<path d="M25.6813 90.5256L10.5813 96.1356C2.9713 98.9556 -0.898735 107.416 1.92127 115.016C4.74126 122.626 13.2013 126.496 20.8013 123.676L35.9013 118.066L25.6813 90.5256Z" stroke="#3D4043" stroke-width="2" stroke-miterlimit="10"/>
<path d="M54.0411 56.7856C51.6111 57.6856 50.3611 60.4156 51.2711 62.8356L73.361 122.336C74.261 124.766 76.9911 126.016 79.4111 125.106C81.8411 124.206 83.0911 121.476 82.1811 119.056L60.0911 59.5556C59.1911 57.1356 56.4611 55.8856 54.0411 56.7856Z" stroke="#3D4043" stroke-width="2" stroke-miterlimit="10"/>
<path d="M25.6812 90.5256C34.4512 86.7456 46.5412 78.2556 51.2612 62.8456" stroke="#3D4043" stroke-width="2" stroke-miterlimit="10"/>
<path d="M35.9111 118.066C45.0211 115.206 59.7211 113.746 73.3611 122.346" stroke="#3D4043" stroke-width="2" stroke-miterlimit="10"/>
<path d="M74.2314 97.6556C79.2014 95.8056 81.7415 90.2856 79.8915 85.3056C78.0415 80.3356 72.5215 77.7956 67.5415 79.6456" stroke="#3D4043" stroke-width="2" stroke-miterlimit="10"/>
<path d="M22.2715 123.126C22.2715 123.126 31.0915 130.706 31.3515 143.736C31.3815 145.406 33.0415 146.546 34.6015 145.966L46.3215 141.616C47.9315 141.016 48.4315 138.976 47.2615 137.716C43.0315 133.136 34.8515 123.686 34.3115 118.656" stroke="#3D4043" stroke-width="2" stroke-miterlimit="10"/>
<path d="M86.2812 83.6956L97.4012 79.5656" stroke="#3D4043" stroke-width="2" stroke-miterlimit="10" stroke-linecap="round" stroke-linejoin="round"/>
<path d="M82.1914 72.7056L87.1414 61.9156" stroke="#3D4043" stroke-width="2" stroke-miterlimit="10" stroke-linecap="round" stroke-linejoin="round"/>
<path d="M90.3613 94.6856L101.141 99.6256" stroke="#3D4043" stroke-width="2" stroke-miterlimit="10" stroke-linecap="round" stroke-linejoin="round"/>
<path d="M10.5913 96.1256L15.7013 109.896L25.2313 106.356L20.1213 92.5856" stroke="#3D4043" stroke-width="2" stroke-miterlimit="10"/>
<path d="M23.6611 124.526L36.6811 124.336" stroke="#3D4043" stroke-width="2" stroke-miterlimit="10"/>
<path d="M27.6914 130.206L40.3814 130.116" stroke="#3D4043" stroke-width="2" stroke-miterlimit="10"/>
<path d="M30.0112 135.616L45.7512 136.046" stroke="#3D4043" stroke-width="2" stroke-miterlimit="10"/>
<path d="M31.2114 141.446L46.3214 141.616" stroke="#3D4043" stroke-width="2" stroke-miterlimit="10"/>
</svg>
