<svg width="131" height="119" viewBox="0 0 131 119" fill="none" xmlns="http://www.w3.org/2000/svg">
<path d="M51.2901 102.915L48.0901 99.715C49.5401 97.695 50.3901 95.215 50.3901 92.545C50.3901 85.725 44.8401 80.185 38.0301 80.185C35.3601 80.185 32.8801 81.045 30.8601 82.485L27.2701 78.895L24.3901 81.775L27.9801 85.365C26.5301 87.385 25.6801 89.865 25.6801 92.535C25.6801 99.355 31.2301 104.895 38.0401 104.895C40.7101 104.895 43.1901 104.035 45.2101 102.595L48.4101 105.795L51.2901 102.915ZM38.0401 84.255C42.6101 84.255 46.3301 87.975 46.3301 92.545C46.3301 94.095 45.9001 95.535 45.1601 96.775L33.8201 85.435C35.0501 84.695 36.4901 84.255 38.0401 84.255ZM38.0401 100.825C33.4701 100.825 29.7601 97.105 29.7601 92.535C29.7601 90.985 30.1901 89.545 30.9301 88.305L42.2701 99.645C41.0301 100.395 39.5801 100.825 38.0401 100.825Z" stroke="#3D4043" stroke-width="2" stroke-miterlimit="10"/>
<path d="M52.93 58.375C50.23 61.075 45.81 61.075 43.11 58.375L28.86 44.125C26.16 41.425 26.16 37.005 28.86 34.305C31.56 31.605 35.98 31.605 38.68 34.305L52.93 48.555C55.63 51.255 55.63 55.675 52.93 58.375Z" stroke="#3D4043" stroke-width="2" stroke-miterlimit="10"/>
<path d="M63.14 48.165C60.44 50.865 56.02 50.865 53.32 48.165L37.15 31.995C34.45 29.295 34.45 24.875 37.15 22.175C39.85 19.475 44.27 19.475 46.97 22.175L63.14 38.345C65.84 41.045 65.84 45.465 63.14 48.165Z" stroke="#3D4043" stroke-width="2" stroke-miterlimit="10"/>
<path d="M73.1299 38.185C70.4299 40.885 66.0099 40.885 63.3099 38.185L44.5699 19.445C41.8699 16.745 41.8699 12.325 44.5699 9.62501C47.2699 6.92501 51.6899 6.92501 54.3899 9.62501L73.1299 28.365C75.8199 31.065 75.8199 35.485 73.1299 38.185Z" stroke="#3D4043" stroke-width="2" stroke-miterlimit="10"/>
<path d="M100.23 17.195L104.19 12.845C106.89 10.145 106.89 5.725 104.19 3.025C101.49 0.325 97.0701 0.325 94.3701 3.025L75.6301 21.765L71.0801 26.325" stroke="#3D4043" stroke-width="2" stroke-miterlimit="10"/>
<path d="M93.3501 24.075L101.71 15.715C104.41 13.015 108.83 13.015 111.53 15.715C114.23 18.415 114.23 22.835 111.53 25.535L108.91 28.355" stroke="#3D4043" stroke-width="2" stroke-miterlimit="10"/>
<path d="M100.87 36.385L108.91 28.345C111.61 25.645 116.03 25.645 118.73 28.345C121.43 31.045 121.43 35.465 118.73 38.165L110.56 46.335" stroke="#3D4043" stroke-width="2" stroke-miterlimit="10"/>
<path d="M115.18 41.915C117.88 39.215 122.3 39.215 125 41.915C127.7 44.615 127.7 49.035 125 51.735L106.26 70.475L88.94 86.655C88.94 86.655 82.06 94.375 72.65 91.865L46.46 117.895" stroke="#3D4043" stroke-width="2" stroke-miterlimit="10"/>
<path d="M43.9799 68.425L43.2699 69.135C40.7699 71.635 36.6699 71.635 34.1699 69.135L22.8599 57.825C20.3599 55.325 20.3599 51.225 22.8599 48.725L23.5699 48.015C26.0699 45.515 30.1699 45.515 32.6699 48.015L43.9799 59.325C46.4799 61.825 46.4799 65.925 43.9799 68.425Z" stroke="#3D4043" stroke-width="2" stroke-miterlimit="10"/>
<path d="M1 97.745L31.99 66.975" stroke="#3D4043" stroke-width="2" stroke-miterlimit="10"/>
<path d="M89.1602 8.245C86.1902 4.645 81.5202 4.655 81.5202 4.655H57.8702C57.1602 14.055 63.9102 18.125 63.9102 18.125H79.2802" stroke="#3D4043" stroke-width="2" stroke-miterlimit="10"/>
<path d="M67.6802 96.805C67.6802 96.805 72.3102 104.295 85.7502 102.785L100.87 117.895" stroke="#3D4043" stroke-width="2" stroke-miterlimit="10"/>
<path d="M113.55 63.185L130.07 80.445" stroke="#3D4043" stroke-width="2" stroke-miterlimit="10"/>
<path d="M64.8101 89.015L75.6301 92.345" stroke="#3D4043" stroke-width="2" stroke-miterlimit="10"/>
<path d="M85.7402 102.775H93.3502" stroke="#3D4043" stroke-width="2" stroke-miterlimit="10"/>
<path d="M41.9302 105.455L50.1502 114.215" stroke="#3D4043" stroke-width="2" stroke-miterlimit="10"/>
<path d="M18.4199 80.445L25.4099 87.885" stroke="#3D4043" stroke-width="2" stroke-miterlimit="10"/>
<path d="M50.5698 97.315L58.7098 105.975" stroke="#3D4043" stroke-width="2" stroke-miterlimit="10"/>
<path d="M26.98 72.205L33.81 79.475" stroke="#3D4043" stroke-width="2" stroke-miterlimit="10"/>
</svg>
