<svg width="24" height="24" viewBox="0 0 24 24" fill="none" xmlns="http://www.w3.org/2000/svg">
<path d="M2.03399 13.68C2.06759 13.8069 2.12598 13.9258 2.20579 14.03C2.2856 14.1342 2.38525 14.2216 2.49899 14.287L4.40899 15.391V17.59C4.40899 17.8552 4.51435 18.1096 4.70189 18.2971C4.88942 18.4847 5.14378 18.59 5.40899 18.59H7.60799L8.71199 20.5C8.80052 20.6514 8.92693 20.7771 9.07877 20.8647C9.23061 20.9524 9.40266 20.999 9.57799 21C9.75199 21 9.92499 20.954 10.079 20.865L11.987 19.762L13.897 20.866C14.1266 20.9984 14.3994 21.0344 14.6555 20.966C14.9115 20.8975 15.13 20.7303 15.263 20.501L16.366 18.591H18.565C18.8302 18.591 19.0846 18.4857 19.2721 18.2981C19.4596 18.1106 19.565 17.8562 19.565 17.591V15.392L21.475 14.288C21.5888 14.2223 21.6885 14.1348 21.7684 14.0305C21.8483 13.9262 21.9069 13.8071 21.9408 13.6802C21.9747 13.5532 21.9832 13.4208 21.9659 13.2906C21.9486 13.1603 21.9058 13.0347 21.84 12.921L20.737 11.012L21.841 9.10403C21.9737 8.87447 22.0098 8.60161 21.9413 8.34545C21.8729 8.0893 21.7055 7.87081 21.476 7.73803L19.566 6.63403V4.43403C19.566 4.16881 19.4606 3.91446 19.2731 3.72692C19.0856 3.53938 18.8312 3.43403 18.566 3.43403H16.367L15.264 1.52503C15.1308 1.29594 14.9127 1.12853 14.657 1.05903C14.5302 1.02464 14.3978 1.01578 14.2675 1.03294C14.1372 1.05011 14.0116 1.09296 13.898 1.15903L11.987 2.26203L10.078 1.15803C9.84844 1.02534 9.57558 0.989254 9.31942 1.0577C9.06326 1.12615 8.84477 1.29352 8.71199 1.52303L7.60799 3.43303H5.40899C5.14378 3.43303 4.88942 3.53838 4.70189 3.72592C4.51435 3.91346 4.40899 4.16781 4.40899 4.43303V6.63203L2.49899 7.73603C2.26956 7.86938 2.10232 8.08822 2.0339 8.34463C1.96549 8.60103 2.00148 8.8741 2.13399 9.10403L3.23799 11.012L2.13399 12.92C2.00198 13.1503 1.96605 13.4234 2.03399 13.68Z" fill="#3D4043"/>
<path d="M8 11L11 14L17 8" stroke="white" stroke-width="1.5" stroke-linecap="round" stroke-linejoin="round"/>
</svg>
